<svg width="87" height="14" viewBox="0 0 87 14" fill="none" xmlns="http://www.w3.org/2000/svg">
<path d="M2.36433 3.352V6.616H6.20433V8.104H2.36433V11.512H6.68433V13H0.540332V1.864H6.68433V3.352H2.36433ZM8.32296 8.552C8.32296 7.66667 8.50429 6.88267 8.86696 6.2C9.24029 5.51733 9.74162 4.98933 10.371 4.616C11.011 4.232 11.7203 4.04 12.499 4.04C13.075 4.04 13.6403 4.168 14.195 4.424C14.7603 4.66933 15.2083 5 15.539 5.416V1.16H17.379V13H15.539V11.672C15.2403 12.0987 14.8243 12.4507 14.291 12.728C13.7683 13.0053 13.1656 13.144 12.483 13.144C11.715 13.144 11.011 12.952 10.371 12.568C9.74162 12.1733 9.24029 11.6293 8.86696 10.936C8.50429 10.232 8.32296 9.43733 8.32296 8.552ZM15.539 8.584C15.539 7.976 15.411 7.448 15.155 7C14.9096 6.552 14.5843 6.21067 14.179 5.976C13.7736 5.74133 13.3363 5.624 12.867 5.624C12.3976 5.624 11.9603 5.74133 11.555 5.976C11.1496 6.2 10.819 6.536 10.563 6.984C10.3176 7.42133 10.195 7.944 10.195 8.552C10.195 9.16 10.3176 9.69333 10.563 10.152C10.819 10.6107 11.1496 10.9627 11.555 11.208C11.971 11.4427 12.4083 11.56 12.867 11.56C13.3363 11.56 13.7736 11.4427 14.179 11.208C14.5843 10.9733 14.9096 10.632 15.155 10.184C15.411 9.72533 15.539 9.192 15.539 8.584ZM20.7027 3.016C20.372 3.016 20.0947 2.904 19.8707 2.68C19.6467 2.456 19.5347 2.17867 19.5347 1.848C19.5347 1.51733 19.6467 1.24 19.8707 1.016C20.0947 0.791999 20.372 0.679999 20.7027 0.679999C21.0227 0.679999 21.2947 0.791999 21.5187 1.016C21.7427 1.24 21.8547 1.51733 21.8547 1.848C21.8547 2.17867 21.7427 2.456 21.5187 2.68C21.2947 2.904 21.0227 3.016 20.7027 3.016ZM21.5987 4.184V13H19.7747V4.184H21.5987ZM26.1215 5.672V10.552C26.1215 10.8827 26.1961 11.1227 26.3455 11.272C26.5055 11.4107 26.7721 11.48 27.1455 11.48H28.2655V13H26.8255C26.0041 13 25.3748 12.808 24.9375 12.424C24.5001 12.04 24.2815 11.416 24.2815 10.552V5.672H23.2415V4.184H24.2815V1.992H26.1215V4.184H28.2655V5.672H26.1215ZM40.8068 10.728H36.1508L35.3508 13H33.4468L37.4308 1.864H39.5428L43.5268 13H41.6068L40.8068 10.728ZM40.2948 9.24L38.4868 4.072L36.6628 9.24H40.2948ZM48.6671 11.368L51.1631 4.184H53.0991L49.7391 13H47.5631L44.2191 4.184H46.1711L48.6671 11.368ZM53.8698 8.552C53.8698 7.66667 54.0512 6.88267 54.4138 6.2C54.7872 5.51733 55.2885 4.98933 55.9178 4.616C56.5578 4.232 57.2618 4.04 58.0298 4.04C58.7232 4.04 59.3258 4.17867 59.8378 4.456C60.3605 4.72267 60.7765 5.05867 61.0858 5.464V4.184H62.9258V13H61.0858V11.688C60.7765 12.104 60.3552 12.4507 59.8218 12.728C59.2885 13.0053 58.6805 13.144 57.9978 13.144C57.2405 13.144 56.5472 12.952 55.9178 12.568C55.2885 12.1733 54.7872 11.6293 54.4138 10.936C54.0512 10.232 53.8698 9.43733 53.8698 8.552ZM61.0858 8.584C61.0858 7.976 60.9578 7.448 60.7018 7C60.4565 6.552 60.1312 6.21067 59.7258 5.976C59.3205 5.74133 58.8832 5.624 58.4138 5.624C57.9445 5.624 57.5072 5.74133 57.1018 5.976C56.6965 6.2 56.3658 6.536 56.1098 6.984C55.8645 7.42133 55.7418 7.944 55.7418 8.552C55.7418 9.16 55.8645 9.69333 56.1098 10.152C56.3658 10.6107 56.6965 10.9627 57.1018 11.208C57.5178 11.4427 57.9552 11.56 58.4138 11.56C58.8832 11.56 59.3205 11.4427 59.7258 11.208C60.1312 10.9733 60.4565 10.632 60.7018 10.184C60.9578 9.72533 61.0858 9.192 61.0858 8.584ZM67.4496 5.672V10.552C67.4496 10.8827 67.5242 11.1227 67.6736 11.272C67.8336 11.4107 68.1002 11.48 68.4736 11.48H69.5936V13H68.1536C67.3322 13 66.7029 12.808 66.2656 12.424C65.8282 12.04 65.6096 11.416 65.6096 10.552V5.672H64.5696V4.184H65.6096V1.992H67.4496V4.184H69.5936V5.672H67.4496ZM70.6667 8.552C70.6667 7.66667 70.848 6.88267 71.2107 6.2C71.584 5.51733 72.0854 4.98933 72.7147 4.616C73.3547 4.232 74.0587 4.04 74.8267 4.04C75.52 4.04 76.1227 4.17867 76.6347 4.456C77.1574 4.72267 77.5734 5.05867 77.8827 5.464V4.184H79.7227V13H77.8827V11.688C77.5734 12.104 77.152 12.4507 76.6187 12.728C76.0854 13.0053 75.4774 13.144 74.7947 13.144C74.0374 13.144 73.344 12.952 72.7147 12.568C72.0854 12.1733 71.584 11.6293 71.2107 10.936C70.848 10.232 70.6667 9.43733 70.6667 8.552ZM77.8827 8.584C77.8827 7.976 77.7547 7.448 77.4987 7C77.2534 6.552 76.928 6.21067 76.5227 5.976C76.1174 5.74133 75.68 5.624 75.2107 5.624C74.7414 5.624 74.304 5.74133 73.8987 5.976C73.4934 6.2 73.1627 6.536 72.9067 6.984C72.6614 7.42133 72.5387 7.944 72.5387 8.552C72.5387 9.16 72.6614 9.69333 72.9067 10.152C73.1627 10.6107 73.4934 10.9627 73.8987 11.208C74.3147 11.4427 74.752 11.56 75.2107 11.56C75.68 11.56 76.1174 11.4427 76.5227 11.208C76.928 10.9733 77.2534 10.632 77.4987 10.184C77.7547 9.72533 77.8827 9.192 77.8827 8.584ZM83.9425 5.464C84.2091 5.016 84.5611 4.66933 84.9985 4.424C85.4465 4.168 85.9745 4.04 86.5825 4.04V5.928H86.1185C85.4038 5.928 84.8598 6.10933 84.4865 6.472C84.1238 6.83467 83.9425 7.464 83.9425 8.36V13H82.1185V4.184H83.9425V5.464Z" fill="white"/>
</svg>
